{
	"asset":{
		"generator":"Khronos glTF Blender I/O v3.6.27",
		"version":"2.0"
	},
	"scene":0,
	"scenes":[
		{
			"name":"Scene",
			"nodes":[
				0
			]
		}
	],
	"nodes":[
		{
			"mesh":0,
			"name":"GoldBar",
			"scale":[
				2.7444369792938232,
				2.8862221240997314,
				3.3783273696899414
			]
		}
	],
	"materials":[
		{
			"doubleSided":true,
			"name":"GoldBar",
			"pbrMetallicRoughness":{
				"baseColorFactor":[
					0.8000000715255737,
					0.40878719091415405,
					0,
					1
				],
				"metallicRoughnessTexture":{
					"index":0
				}
			}
		}
	],
	"meshes":[
		{
			"name":"Mesh",
			"primitives":[
				{
					"attributes":{
						"POSITION":0,
						"NORMAL":1,
						"TEXCOORD_0":2
					},
					"indices":3,
					"material":0
				}
			]
		}
	],
	"textures":[
		{
			"sampler":0,
			"source":0
		}
	],
	"images":[
		{
			"bufferView":4,
			"mimeType":"image/png",
			"name":"Image"
		}
	],
	"accessors":[
		{
			"bufferView":0,
			"componentType":5126,
			"count":1362,
			"max":[
				0.03886651620268822,
				0.05000000447034836,
				0.07391075044870377
			],
			"min":[
				-0.03886651620268822,
				1.862645149230957e-09,
				-0.07391075044870377
			],
			"type":"VEC3"
		},
		{
			"bufferView":1,
			"componentType":5126,
			"count":1362,
			"type":"VEC3"
		},
		{
			"bufferView":2,
			"componentType":5126,
			"count":1362,
			"type":"VEC2"
		},
		{
			"bufferView":3,
			"componentType":5123,
			"count":6336,
			"type":"SCALAR"
		}
	],
	"bufferViews":[
		{
			"buffer":0,
			"byteLength":16344,
			"byteOffset":0,
			"target":34962
		},
		{
			"buffer":0,
			"byteLength":16344,
			"byteOffset":16344,
			"target":34962
		},
		{
			"buffer":0,
			"byteLength":10896,
			"byteOffset":32688,
			"target":34962
		},
		{
			"buffer":0,
			"byteLength":12672,
			"byteOffset":43584,
			"target":34963
		},
		{
			"buffer":0,
			"byteLength":243,
			"byteOffset":56256
		}
	],
	"samplers":[
		{
			"magFilter":9729,
			"minFilter":9987
		}
	],
	"buffers":[
		{
			"byteLength":56500,
			"uri":"data:application/octet-stream;base64,"
		}
	]
}
