{
	"asset":{
		"copyright":"noorahmedsamir",
		"generator":"Khronos glTF Blender I/O v4.0.43",
		"version":"2.0"
	},
	"extensionsUsed":[
		"KHR_materials_transmission",
		"KHR_materials_ior"
	],
	"scene":0,
	"scenes":[
		{
			"name":"Scene",
			"nodes":[
				2,
				4,
				5
			]
		}
	],
	"nodes":[
		{
			"mesh":0,
			"name":"Liquid",
			"scale":[
				0,
				0,
				0
			],
			"translation":[
				-0.0625,
				2,
				8
			]
		},
		{
			"mesh":1,
			"name":"sub05.001",
			"scale":[
				0,
				0,
				0
			],
			"translation":[
				-0.0625,
				2,
				8
			]
		},
		{
			"children":[
				0,
				1
			],
			"mesh":2,
			"name":"Cube",
			"scale":[
				0,
				0,
				0
			],
			"translation":[
				-0.0066956449300050735,
				0.20570075511932373,
				0.8127043843269348
			]
		},
		{
			"mesh":3,
			"name":"CocaCola_Glass.001",
			"scale":[
				0,
				0,
				0
			]
		},
		{
			"children":[
				3
			],
			"mesh":4,
			"name":"CocaCola_Glass.002",
			"scale":[
				0,
				0,
				0
			],
			"translation":[
				-0.010911575518548489,
				1.4406346082687378,
				-0.8891630172729492
			]
		},
		{
			"mesh":5,
			"name":"Cube.007",
			"scale":[
				0,
				0,
				0
			],
			"translation":[
				0,
				-0.7800049185752869,
				-0.06041797995567322
			]
		}
	],
	"animations":[
		{
			"channels":[
				{
					"sampler":0,
					"target":{
						"node":2,
						"path":"translation"
					}
				},
				{
					"sampler":1,
					"target":{
						"node":2,
						"path":"rotation"
					}
				},
				{
					"sampler":2,
					"target":{
						"node":2,
						"path":"scale"
					}
				},
				{
					"sampler":3,
					"target":{
						"node":0,
						"path":"translation"
					}
				},
				{
					"sampler":4,
					"target":{
						"node":0,
						"path":"rotation"
					}
				},
				{
					"sampler":5,
					"target":{
						"node":0,
						"path":"scale"
					}
				},
				{
					"sampler":6,
					"target":{
						"node":1,
						"path":"translation"
					}
				},
				{
					"sampler":7,
					"target":{
						"node":1,
						"path":"rotation"
					}
				},
				{
					"sampler":8,
					"target":{
						"node":1,
						"path":"scale"
					}
				},
				{
					"sampler":9,
					"target":{
						"node":4,
						"path":"translation"
					}
				},
				{
					"sampler":10,
					"target":{
						"node":4,
						"path":"rotation"
					}
				},
				{
					"sampler":11,
					"target":{
						"node":4,
						"path":"scale"
					}
				},
				{
					"sampler":12,
					"target":{
						"node":3,
						"path":"translation"
					}
				},
				{
					"sampler":13,
					"target":{
						"node":3,
						"path":"rotation"
					}
				},
				{
					"sampler":14,
					"target":{
						"node":3,
						"path":"scale"
					}
				},
				{
					"sampler":15,
					"target":{
						"node":5,
						"path":"translation"
					}
				},
				{
					"sampler":16,
					"target":{
						"node":5,
						"path":"rotation"
					}
				},
				{
					"sampler":17,
					"target":{
						"node":5,
						"path":"scale"
					}
				}
			],
			"name":"Animation_Merged",
			"samplers":[
				{
					"input":32,
					"interpolation":"LINEAR",
					"output":33
				},
				{
					"input":32,
					"interpolation":"LINEAR",
					"output":34
				},
				{
					"input":32,
					"interpolation":"LINEAR",
					"output":35
				},
				{
					"input":32,
					"interpolation":"LINEAR",
					"output":36
				},
				{
					"input":32,
					"interpolation":"LINEAR",
					"output":37
				},
				{
					"input":32,
					"interpolation":"LINEAR",
					"output":38
				},
				{
					"input":32,
					"interpolation":"LINEAR",
					"output":39
				},
				{
					"input":32,
					"interpolation":"LINEAR",
					"output":40
				},
				{
					"input":32,
					"interpolation":"LINEAR",
					"output":41
				},
				{
					"input":32,
					"interpolation":"LINEAR",
					"output":42
				},
				{
					"input":32,
					"interpolation":"LINEAR",
					"output":43
				},
				{
					"input":32,
					"interpolation":"LINEAR",
					"output":44
				},
				{
					"input":32,
					"interpolation":"LINEAR",
					"output":45
				},
				{
					"input":32,
					"interpolation":"LINEAR",
					"output":46
				},
				{
					"input":32,
					"interpolation":"LINEAR",
					"output":47
				},
				{
					"input":48,
					"interpolation":"STEP",
					"output":49
				},
				{
					"input":48,
					"interpolation":"STEP",
					"output":50
				},
				{
					"input":32,
					"interpolation":"LINEAR",
					"output":51
				}
			]
		}
	],
	"materials":[
		{
			"doubleSided":true,
			"name":"Material.008",
			"pbrMetallicRoughness":{
				"baseColorFactor":[
					0.04237540438771248,
					0.00586966285482049,
					0.003022178076207638,
					1
				],
				"metallicFactor":0,
				"roughnessFactor":0
			}
		},
		{
			"doubleSided":true,
			"name":"wire_006135006",
			"pbrMetallicRoughness":{
				"baseColorTexture":{
					"index":0
				},
				"metallicFactor":0.10236218571662903,
				"roughnessFactor":0.15121161937713623
			}
		},
		{
			"alphaMode":"BLEND",
			"doubleSided":true,
			"extensions":{
				"KHR_materials_transmission":{
					"transmissionFactor":1
				},
				"KHR_materials_ior":{
					"ior":1.5199999809265137
				}
			},
			"name":"Material.004",
			"pbrMetallicRoughness":{
				"baseColorFactor":[
					0.8086557388305664,
					0.8086557388305664,
					0.8086557388305664,
					1
				],
				"metallicFactor":0,
				"roughnessFactor":0.30000001192092896
			}
		},
		{
			"doubleSided":true,
			"name":"Material",
			"pbrMetallicRoughness":{
				"baseColorTexture":{
					"index":1
				},
				"metallicFactor":0,
				"roughnessFactor":0.26818180084228516
			}
		},
		{
			"alphaMode":"BLEND",
			"doubleSided":true,
			"extensions":{
				"KHR_materials_transmission":{
					"transmissionFactor":1
				},
				"KHR_materials_ior":{
					"ior":1.9500000476837158
				}
			},
			"name":"Material.009",
			"normalTexture":{
				"index":2
			},
			"pbrMetallicRoughness":{
				"baseColorFactor":[
					0.8086557388305664,
					0.8086557388305664,
					0.8086557388305664,
					1
				],
				"metallicFactor":0,
				"roughnessFactor":0.09090912342071533
			}
		},
		{
			"doubleSided":true,
			"name":"Material.003",
			"pbrMetallicRoughness":{
				"roughnessFactor":0.5
			}
		}
	],
	"meshes":[
		{
			"name":"Mesh.010",
			"primitives":[
				{
					"attributes":{
						"POSITION":0,
						"NORMAL":1,
						"TEXCOORD_0":2
					},
					"indices":3,
					"material":0
				}
			]
		},
		{
			"name":"Mesh.007",
			"primitives":[
				{
					"attributes":{
						"POSITION":4,
						"NORMAL":5,
						"TEXCOORD_0":6
					},
					"indices":7,
					"material":1
				}
			]
		},
		{
			"name":"Cube",
			"primitives":[
				{
					"attributes":{
						"POSITION":8,
						"NORMAL":9,
						"TEXCOORD_0":10
					},
					"indices":11,
					"material":2
				},
				{
					"attributes":{
						"POSITION":12,
						"NORMAL":13,
						"TEXCOORD_0":14
					},
					"indices":15,
					"material":3
				}
			]
		},
		{
			"name":"CocaCola_Glass.001",
			"primitives":[
				{
					"attributes":{
						"POSITION":16,
						"NORMAL":17,
						"TEXCOORD_0":18
					},
					"indices":19,
					"material":0
				}
			]
		},
		{
			"name":"CocaCola_Glass.002",
			"primitives":[
				{
					"attributes":{
						"POSITION":20,
						"NORMAL":21,
						"TEXCOORD_0":22
					},
					"indices":23,
					"material":4
				}
			]
		},
		{
			"name":"Cube.003",
			"primitives":[
				{
					"attributes":{
						"POSITION":24,
						"NORMAL":25,
						"TEXCOORD_0":26
					},
					"indices":27,
					"material":5
				},
				{
					"attributes":{
						"POSITION":28,
						"NORMAL":29,
						"TEXCOORD_0":30
					},
					"indices":31,
					"material":5
				}
			]
		}
	],
	"textures":[
		{
			"sampler":0,
			"source":0
		},
		{
			"sampler":1,
			"source":0
		},
		{
			"sampler":1,
			"source":1
		}
	],
	"images":[
		{
			"mimeType":"image/png",
			"name":"logo_coca",
			"uri":"Textures/logo_coca.png"
		},
		{
			"mimeType":"image/png",
			"name":"logo_cocaN2",
			"uri":"Textures/logo_cocaN2.png"
		}
	],
	"accessors":[
		{
			"bufferView":0,
			"componentType":5126,
			"count":3101,
			"max":[
				31.43090057373047,
				31.43079948425293,
				-13.46777629852295
			],
			"min":[
				-31.43090057373047,
				-31.43090057373047,
				-192.2917022705078
			],
			"type":"VEC3"
		},
		{
			"bufferView":1,
			"componentType":5126,
			"count":3101,
			"type":"VEC3"
		},
		{
			"bufferView":2,
			"componentType":5126,
			"count":3101,
			"type":"VEC2"
		},
		{
			"bufferView":3,
			"componentType":5123,
			"count":18594,
			"type":"SCALAR"
		},
		{
			"bufferView":4,
			"componentType":5126,
			"count":47518,
			"max":[
				16.725038528442383,
				17.031335830688477,
				3.095834255218506
			],
			"min":[
				-16.835575103759766,
				-17.23816680908203,
				-4.7229766845703125
			],
			"type":"VEC3"
		},
		{
			"bufferView":5,
			"componentType":5126,
			"count":47518,
			"type":"VEC3"
		},
		{
			"bufferView":6,
			"componentType":5126,
			"count":47518,
			"type":"VEC2"
		},
		{
			"bufferView":7,
			"componentType":5123,
			"count":264096,
			"type":"SCALAR"
		},
		{
			"bufferView":8,
			"componentType":5126,
			"count":4547,
			"max":[
				0.3443567454814911,
				2.327498435974121,
				0.34436604380607605
			],
			"min":[
				-0.3510982394218445,
				-0.06844544410705566,
				-0.3510889708995819
			],
			"type":"VEC3"
		},
		{
			"bufferView":9,
			"componentType":5126,
			"count":4547,
			"type":"VEC3"
		},
		{
			"bufferView":10,
			"componentType":5126,
			"count":4547,
			"type":"VEC2"
		},
		{
			"bufferView":11,
			"componentType":5123,
			"count":21018,
			"type":"SCALAR"
		},
		{
			"bufferView":12,
			"componentType":5126,
			"count":528,
			"max":[
				0.3489648699760437,
				1.416135549545288,
				0.3489741384983063
			],
			"min":[
				-0.3489600419998169,
				0.9366685152053833,
				-0.3489507734775543
			],
			"type":"VEC3"
		},
		{
			"bufferView":13,
			"componentType":5126,
			"count":528,
			"type":"VEC3"
		},
		{
			"bufferView":14,
			"componentType":5126,
			"count":528,
			"type":"VEC2"
		},
		{
			"bufferView":15,
			"componentType":5123,
			"count":2880,
			"type":"SCALAR"
		},
		{
			"bufferView":16,
			"componentType":5126,
			"count":20537,
			"max":[
				0.5594908595085144,
				0.8574736714363098,
				0.559489905834198
			],
			"min":[
				-0.559485137462616,
				-1.1513937711715698,
				-0.559490978717804
			],
			"type":"VEC3"
		},
		{
			"bufferView":17,
			"componentType":5126,
			"count":20537,
			"type":"VEC3"
		},
		{
			"bufferView":18,
			"componentType":5126,
			"count":20537,
			"type":"VEC2"
		},
		{
			"bufferView":19,
			"componentType":5123,
			"count":118794,
			"type":"SCALAR"
		},
		{
			"bufferView":20,
			"componentType":5126,
			"count":139959,
			"max":[
				0.5984277725219727,
				0.988396406173706,
				0.5984303951263428
			],
			"min":[
				-0.5984280109405518,
				-1.2341554164886475,
				-0.5984305143356323
			],
			"type":"VEC3"
		},
		{
			"bufferView":21,
			"componentType":5126,
			"count":139959,
			"type":"VEC3"
		},
		{
			"bufferView":22,
			"componentType":5126,
			"count":139959,
			"type":"VEC2"
		},
		{
			"bufferView":23,
			"componentType":5125,
			"count":780288,
			"type":"SCALAR"
		},
		{
			"bufferView":24,
			"componentType":5126,
			"count":2099,
			"max":[
				1,
				1,
				1.8916805982589722
			],
			"min":[
				-1,
				0.7824817895889282,
				-1.7824881076812744
			],
			"type":"VEC3"
		},
		{
			"bufferView":25,
			"componentType":5126,
			"count":2099,
			"type":"VEC3"
		},
		{
			"bufferView":26,
			"componentType":5126,
			"count":2099,
			"type":"VEC2"
		},
		{
			"bufferView":27,
			"componentType":5123,
			"count":9537,
			"type":"SCALAR"
		},
		{
			"bufferView":28,
			"componentType":5126,
			"count":1855,
			"max":[
				0.5125912427902222,
				0.989196240901947,
				1.388310432434082
			],
			"min":[
				-0.5125912427902222,
				0.9122428894042969,
				-1.3308665752410889
			],
			"type":"VEC3"
		},
		{
			"bufferView":29,
			"componentType":5126,
			"count":1855,
			"type":"VEC3"
		},
		{
			"bufferView":30,
			"componentType":5126,
			"count":1855,
			"type":"VEC2"
		},
		{
			"bufferView":31,
			"componentType":5123,
			"count":9627,
			"type":"SCALAR"
		},
		{
			"bufferView":32,
			"componentType":5126,
			"count":120,
			"max":[
				5
			],
			"min":[
				0.041666666666666664
			],
			"type":"SCALAR"
		},
		{
			"bufferView":33,
			"componentType":5126,
			"count":120,
			"type":"VEC3"
		},
		{
			"bufferView":34,
			"componentType":5126,
			"count":120,
			"type":"VEC4"
		},
		{
			"bufferView":35,
			"componentType":5126,
			"count":120,
			"type":"VEC3"
		},
		{
			"bufferView":36,
			"componentType":5126,
			"count":120,
			"type":"VEC3"
		},
		{
			"bufferView":37,
			"componentType":5126,
			"count":120,
			"type":"VEC4"
		},
		{
			"bufferView":38,
			"componentType":5126,
			"count":120,
			"type":"VEC3"
		},
		{
			"bufferView":39,
			"componentType":5126,
			"count":120,
			"type":"VEC3"
		},
		{
			"bufferView":40,
			"componentType":5126,
			"count":120,
			"type":"VEC4"
		},
		{
			"bufferView":41,
			"componentType":5126,
			"count":120,
			"type":"VEC3"
		},
		{
			"bufferView":42,
			"componentType":5126,
			"count":120,
			"type":"VEC3"
		},
		{
			"bufferView":43,
			"componentType":5126,
			"count":120,
			"type":"VEC4"
		},
		{
			"bufferView":44,
			"componentType":5126,
			"count":120,
			"type":"VEC3"
		},
		{
			"bufferView":45,
			"componentType":5126,
			"count":120,
			"type":"VEC3"
		},
		{
			"bufferView":46,
			"componentType":5126,
			"count":120,
			"type":"VEC4"
		},
		{
			"bufferView":47,
			"componentType":5126,
			"count":120,
			"type":"VEC3"
		},
		{
			"bufferView":48,
			"componentType":5126,
			"count":2,
			"max":[
				5
			],
			"min":[
				0.041666666666666664
			],
			"type":"SCALAR"
		},
		{
			"bufferView":49,
			"componentType":5126,
			"count":2,
			"type":"VEC3"
		},
		{
			"bufferView":50,
			"componentType":5126,
			"count":2,
			"type":"VEC4"
		},
		{
			"bufferView":51,
			"componentType":5126,
			"count":120,
			"type":"VEC3"
		}
	],
	"bufferViews":[
		{
			"buffer":0,
			"byteLength":37212,
			"byteOffset":0,
			"target":34962
		},
		{
			"buffer":0,
			"byteLength":37212,
			"byteOffset":37212,
			"target":34962
		},
		{
			"buffer":0,
			"byteLength":24808,
			"byteOffset":74424,
			"target":34962
		},
		{
			"buffer":0,
			"byteLength":37188,
			"byteOffset":99232,
			"target":34963
		},
		{
			"buffer":0,
			"byteLength":570216,
			"byteOffset":136420,
			"target":34962
		},
		{
			"buffer":0,
			"byteLength":570216,
			"byteOffset":706636,
			"target":34962
		},
		{
			"buffer":0,
			"byteLength":380144,
			"byteOffset":1276852,
			"target":34962
		},
		{
			"buffer":0,
			"byteLength":528192,
			"byteOffset":1656996,
			"target":34963
		},
		{
			"buffer":0,
			"byteLength":54564,
			"byteOffset":2185188,
			"target":34962
		},
		{
			"buffer":0,
			"byteLength":54564,
			"byteOffset":2239752,
			"target":34962
		},
		{
			"buffer":0,
			"byteLength":36376,
			"byteOffset":2294316,
			"target":34962
		},
		{
			"buffer":0,
			"byteLength":42036,
			"byteOffset":2330692,
			"target":34963
		},
		{
			"buffer":0,
			"byteLength":6336,
			"byteOffset":2372728,
			"target":34962
		},
		{
			"buffer":0,
			"byteLength":6336,
			"byteOffset":2379064,
			"target":34962
		},
		{
			"buffer":0,
			"byteLength":4224,
			"byteOffset":2385400,
			"target":34962
		},
		{
			"buffer":0,
			"byteLength":5760,
			"byteOffset":2389624,
			"target":34963
		},
		{
			"buffer":0,
			"byteLength":246444,
			"byteOffset":2395384,
			"target":34962
		},
		{
			"buffer":0,
			"byteLength":246444,
			"byteOffset":2641828,
			"target":34962
		},
		{
			"buffer":0,
			"byteLength":164296,
			"byteOffset":2888272,
			"target":34962
		},
		{
			"buffer":0,
			"byteLength":237588,
			"byteOffset":3052568,
			"target":34963
		},
		{
			"buffer":0,
			"byteLength":1679508,
			"byteOffset":3290156,
			"target":34962
		},
		{
			"buffer":0,
			"byteLength":1679508,
			"byteOffset":4969664,
			"target":34962
		},
		{
			"buffer":0,
			"byteLength":1119672,
			"byteOffset":6649172,
			"target":34962
		},
		{
			"buffer":0,
			"byteLength":3121152,
			"byteOffset":7768844,
			"target":34963
		},
		{
			"buffer":0,
			"byteLength":25188,
			"byteOffset":10889996,
			"target":34962
		},
		{
			"buffer":0,
			"byteLength":25188,
			"byteOffset":10915184,
			"target":34962
		},
		{
			"buffer":0,
			"byteLength":16792,
			"byteOffset":10940372,
			"target":34962
		},
		{
			"buffer":0,
			"byteLength":19074,
			"byteOffset":10957164,
			"target":34963
		},
		{
			"buffer":0,
			"byteLength":22260,
			"byteOffset":10976240,
			"target":34962
		},
		{
			"buffer":0,
			"byteLength":22260,
			"byteOffset":10998500,
			"target":34962
		},
		{
			"buffer":0,
			"byteLength":14840,
			"byteOffset":11020760,
			"target":34962
		},
		{
			"buffer":0,
			"byteLength":19254,
			"byteOffset":11035600,
			"target":34963
		},
		{
			"buffer":0,
			"byteLength":480,
			"byteOffset":11054856
		},
		{
			"buffer":0,
			"byteLength":1440,
			"byteOffset":11055336
		},
		{
			"buffer":0,
			"byteLength":1920,
			"byteOffset":11056776
		},
		{
			"buffer":0,
			"byteLength":1440,
			"byteOffset":11058696
		},
		{
			"buffer":0,
			"byteLength":1440,
			"byteOffset":11060136
		},
		{
			"buffer":0,
			"byteLength":1920,
			"byteOffset":11061576
		},
		{
			"buffer":0,
			"byteLength":1440,
			"byteOffset":11063496
		},
		{
			"buffer":0,
			"byteLength":1440,
			"byteOffset":11064936
		},
		{
			"buffer":0,
			"byteLength":1920,
			"byteOffset":11066376
		},
		{
			"buffer":0,
			"byteLength":1440,
			"byteOffset":11068296
		},
		{
			"buffer":0,
			"byteLength":1440,
			"byteOffset":11069736
		},
		{
			"buffer":0,
			"byteLength":1920,
			"byteOffset":11071176
		},
		{
			"buffer":0,
			"byteLength":1440,
			"byteOffset":11073096
		},
		{
			"buffer":0,
			"byteLength":1440,
			"byteOffset":11074536
		},
		{
			"buffer":0,
			"byteLength":1920,
			"byteOffset":11075976
		},
		{
			"buffer":0,
			"byteLength":1440,
			"byteOffset":11077896
		},
		{
			"buffer":0,
			"byteLength":8,
			"byteOffset":11079336
		},
		{
			"buffer":0,
			"byteLength":24,
			"byteOffset":11079344
		},
		{
			"buffer":0,
			"byteLength":32,
			"byteOffset":11079368
		},
		{
			"buffer":0,
			"byteLength":1440,
			"byteOffset":11079400
		}
	],
	"samplers":[
		{
			"magFilter":9729,
			"minFilter":9987
		},
		{
			"magFilter":9729,
			"minFilter":9987,
			"wrapS":33071,
			"wrapT":33071
		}
	],
	"buffers":[
		{
			"byteLength":11080840,
			"uri":"Animated_001.bin"
		}
	]
}
